<svg width="25" height="24" viewBox="0 0 25 24" fill="none" xmlns="http://www.w3.org/2000/svg">
<g id="fi_3146600" clip-path="url(#clip0_1564_11221)">
<g id="Page-1">
<g id="022---Party-Popper">
<g id="Group">
<path id="Shape" d="M17.3716 17.6648C16.6134 18.4234 8.57254 22.0657 2.51477 23.5574C1.96245 23.6946 1.37863 23.5324 0.976211 23.13C0.573794 22.7276 0.41161 22.1438 0.548807 21.5914C2.04047 15.5337 5.68318 7.49326 6.44142 6.73462L17.3716 17.6648Z" fill="#F0C419"/>
<path id="Oval" d="M17.3682 17.6639C18.1623 16.8697 16.3597 13.7795 13.3419 10.7616C10.324 7.74378 7.23378 5.94115 6.43961 6.73531C5.64545 7.52948 7.44809 10.6197 10.4659 13.6376C13.4838 16.6554 16.574 18.458 17.3682 17.6639Z" fill="#D25627"/>
<path id="Oval_2" d="M4.71548 20.2043C5.16479 20.2043 5.52904 19.8401 5.52904 19.3908C5.52904 18.9415 5.16479 18.5772 4.71548 18.5772C4.26616 18.5772 3.90192 18.9415 3.90192 19.3908C3.90192 19.8401 4.26616 20.2043 4.71548 20.2043Z" fill="#955BA5"/>
<path id="Shape_2" d="M9.89293 10.5933C9.72825 10.5935 9.57974 10.4943 9.51675 10.3421C9.45377 10.19 9.48874 10.0149 9.60533 9.89857L12.1941 7.31023C13.5865 5.91742 13.7638 4.85287 12.7697 3.8583C12.3523 3.36977 11.7147 3.12778 11.0783 3.2164C10.6295 3.31142 10.2178 3.53437 9.89293 3.8583C9.73331 4.01246 9.4796 4.01025 9.3227 3.85334C9.16579 3.69644 9.16358 3.44272 9.31774 3.28311C9.75993 2.84014 10.3234 2.53807 10.9371 2.41504C11.8354 2.27325 12.7437 2.60075 13.3449 3.28311C14.6807 4.61898 14.4871 6.16759 12.7693 7.88542L10.1813 10.4742C10.1049 10.5507 10.0011 10.5935 9.89293 10.5933Z" fill="#955BA5"/>
<path id="Shape_3" d="M20.5355 14.9077C20.371 14.9077 20.2227 14.8085 20.1598 14.6566C20.0968 14.5046 20.1316 14.3297 20.2479 14.2133C20.6617 13.8499 20.8988 13.3258 20.8988 12.7751C20.8988 12.2245 20.6617 11.7004 20.2479 11.337C19.8293 10.8293 19.1575 10.6052 18.5179 10.7598C17.8542 10.9888 17.2611 11.3858 16.7964 11.9122L14.4952 14.2133C14.3364 14.3721 14.0789 14.3721 13.9201 14.2133C13.7613 14.0545 13.7613 13.797 13.9201 13.6381L16.2212 11.337C16.7859 10.7067 17.5066 10.2363 18.3108 9.97304C19.2301 9.73762 20.2034 10.0432 20.8231 10.7618C22.4124 12.3507 21.5712 14.0408 20.8231 14.7889C20.747 14.8654 20.6434 14.9082 20.5355 14.9077Z" fill="#FF5364"/>
<path id="Shape_4" d="M15.3584 7.42903C15.1941 7.429 15.046 7.33014 14.9829 7.17844C14.9198 7.02674 14.9542 6.85199 15.07 6.73547C15.1766 6.62808 17.658 4.07635 15.6159 1.52381C15.5161 1.41131 15.4866 1.25295 15.539 1.11202C15.5915 0.971098 15.7174 0.870597 15.8664 0.850694C16.0155 0.830792 16.1633 0.894734 16.2509 1.01696C18.751 4.14144 15.6773 7.28137 15.6456 7.31147C15.5694 7.38737 15.466 7.42969 15.3584 7.42903Z" fill="#F0C419"/>
<path id="Oval_3" d="M19.6187 8.53058C20.2926 8.53058 20.839 7.98422 20.839 7.31024C20.839 6.63627 20.2926 6.0899 19.6187 6.0899C18.9447 6.0899 18.3983 6.63627 18.3983 7.31024C18.3983 7.98422 18.9447 8.53058 19.6187 8.53058Z" fill="#FF5364"/>
<path id="Oval_4" d="M13.5169 1.62712C13.9662 1.62712 14.3305 1.26288 14.3305 0.813559C14.3305 0.364243 13.9662 0 13.5169 0C13.0676 0 12.7034 0.364243 12.7034 0.813559C12.7034 1.26288 13.0676 1.62712 13.5169 1.62712Z" fill="#3B97D3"/>
<path id="Oval_5" d="M23.2796 16.2712C23.7289 16.2712 24.0932 15.9069 24.0932 15.4576C24.0932 15.0083 23.7289 14.644 23.2796 14.644C22.8303 14.644 22.4661 15.0083 22.4661 15.4576C22.4661 15.9069 22.8303 16.2712 23.2796 16.2712Z" fill="#955BA5"/>
<path id="Shape_5" d="M19.6186 2.44068C19.394 2.44068 19.2119 2.25855 19.2119 2.0339V1.62712C19.2119 1.40246 19.394 1.22034 19.6186 1.22034C19.8433 1.22034 20.0254 1.40246 20.0254 1.62712V2.0339C20.0254 2.25855 19.8433 2.44068 19.6186 2.44068Z" fill="#955BA5"/>
<path id="Shape_6" d="M20.8389 3.25423H20.4322C20.2075 3.25423 20.0254 3.07211 20.0254 2.84745C20.0254 2.6228 20.2075 2.44067 20.4322 2.44067H20.8389C21.0636 2.44067 21.2457 2.6228 21.2457 2.84745C21.2457 3.07211 21.0636 3.25423 20.8389 3.25423Z" fill="#955BA5"/>
<path id="Shape_7" d="M19.6186 4.47455C19.394 4.47455 19.2119 4.29243 19.2119 4.06777V3.66099C19.2119 3.43633 19.394 3.25421 19.6186 3.25421C19.8433 3.25421 20.0254 3.43633 20.0254 3.66099V4.06777C20.0254 4.29243 19.8433 4.47455 19.6186 4.47455Z" fill="#955BA5"/>
<path id="Shape_8" d="M18.8051 3.25423H18.3983C18.1736 3.25423 17.9915 3.07211 17.9915 2.84745C17.9915 2.6228 18.1736 2.44067 18.3983 2.44067H18.8051C19.0297 2.44067 19.2119 2.6228 19.2119 2.84745C19.2119 3.07211 19.0297 3.25423 18.8051 3.25423Z" fill="#955BA5"/>
<path id="Shape_9" d="M22.8728 9.35596C22.6482 9.35596 22.4661 9.17384 22.4661 8.94918V8.5424C22.4661 8.31774 22.6482 8.13562 22.8728 8.13562C23.0975 8.13562 23.2796 8.31774 23.2796 8.5424V8.94918C23.2796 9.17384 23.0975 9.35596 22.8728 9.35596Z" fill="#3B97D3"/>
<path id="Shape_10" d="M24.0932 10.1695H23.6864C23.4618 10.1695 23.2797 9.98739 23.2797 9.76274C23.2797 9.53808 23.4618 9.35596 23.6864 9.35596H24.0932C24.3179 9.35596 24.5 9.53808 24.5 9.76274C24.5 9.98739 24.3179 10.1695 24.0932 10.1695Z" fill="#3B97D3"/>
<path id="Shape_11" d="M22.8728 11.3898C22.6482 11.3898 22.4661 11.2077 22.4661 10.9831V10.5763C22.4661 10.3516 22.6482 10.1695 22.8728 10.1695C23.0975 10.1695 23.2796 10.3516 23.2796 10.5763V10.9831C23.2796 11.2077 23.0975 11.3898 22.8728 11.3898Z" fill="#3B97D3"/>
<path id="Shape_12" d="M22.0593 10.1695H21.6525C21.4278 10.1695 21.2457 9.98739 21.2457 9.76274C21.2457 9.53808 21.4278 9.35596 21.6525 9.35596H22.0593C22.2839 9.35596 22.4661 9.53808 22.4661 9.76274C22.4661 9.98739 22.2839 10.1695 22.0593 10.1695Z" fill="#3B97D3"/>
</g>
<path id="Shape_13" d="M14.1352 19.379C13.0817 19.859 11.8369 20.3878 10.5027 20.9166C10.3034 20.7946 10.0918 20.6563 9.87217 20.5058C9.06155 19.9597 8.28706 19.3619 7.55353 18.7159C7.19149 18.3905 6.81726 18.0448 6.43895 17.6664C6.0037 17.2325 5.60776 16.8068 5.25115 16.3892C4.49182 15.5172 3.80224 14.5869 3.18878 13.6068C3.7176 12.2725 4.24641 11.0278 4.73048 9.97424C5.16154 10.8116 5.65514 11.6152 6.20709 12.3783C6.86672 13.3005 7.59271 14.1733 8.37929 14.9898C8.49319 15.1159 8.61522 15.238 8.74132 15.3641C9.37275 15.9967 10.0396 16.5929 10.7386 17.1498C11.7937 18.0042 12.9316 18.7509 14.1352 19.379Z" fill="#FF5364"/>
<path id="Shape_14" d="M10.7386 17.1498C10.2624 18.2115 9.9694 19.3462 9.87217 20.5057C9.06155 19.9597 8.28706 19.3618 7.55353 18.7159C7.58194 17.4318 7.86251 16.1657 8.37929 14.9898C8.49319 15.1159 8.61522 15.2379 8.74132 15.364C9.37275 15.9966 10.0396 16.5928 10.7386 17.1498Z" fill="#955BA5"/>
<path id="Shape_15" d="M8.3793 14.9898C7.86252 16.1657 7.58195 17.4318 7.55353 18.7159C7.1915 18.3905 6.81726 18.0447 6.43896 17.6664C6.0037 17.2325 5.60777 16.8068 5.25116 16.3891C5.2933 15.001 5.61859 13.6362 6.20709 12.3783C6.86672 13.3004 7.59271 14.1733 8.3793 14.9898Z" fill="#B49ACA"/>
<path id="Shape_16" d="M4.95422 22.8773C4.12032 23.1336 3.29863 23.3614 2.51354 23.5566C1.96154 23.6939 1.378 23.5318 0.975793 23.1296C0.573589 22.7274 0.411551 22.1439 0.548796 21.5919C0.74405 20.8068 0.971847 19.9851 1.22812 19.1512C2.33086 20.5251 3.58029 21.7745 4.95422 22.8773Z" fill="#FF5364"/>
</g>
</g>
</g>
<defs>
<clipPath id="clip0_1564_11221">
<rect width="24" height="24" fill="white" transform="translate(0.5)"/>
</clipPath>
</defs>
</svg>
