<svg width="80" height="80" viewBox="0 0 80 80" fill="none" xmlns="http://www.w3.org/2000/svg">
<g id="fi_5253968" clip-path="url(#clip0_1564_11216)">
<path id="Vector" d="M74.4678 32.1582C73.4409 31.4687 72.5135 30.6416 71.7115 29.7C71.771 28.3889 72.0346 27.0952 72.4927 25.8653C73.3537 22.9503 74.426 19.3225 72.3593 16.4838C70.2777 13.6225 66.4748 13.5265 63.4197 13.4483C62.1345 13.4997 60.8487 13.3615 59.6038 13.0382C58.9194 11.9644 58.3967 10.7958 58.0527 9.56982C57.0333 6.66666 55.7633 3.05332 52.3625 1.94816C49.0625 0.875658 46.101 2.91332 43.4897 4.70532C42.4403 5.5432 41.2621 6.20556 40.0008 6.66666C38.7389 6.20604 37.5602 5.54365 36.5105 4.70532C33.899 2.91182 30.9367 0.880491 27.6375 1.94816C24.2375 3.05332 22.968 6.66482 21.9475 9.56866C21.6042 10.7886 21.0873 11.9528 20.4127 13.0257C19.1638 13.3588 17.8717 13.501 16.5803 13.4473C13.5253 13.5253 9.7225 13.6215 7.64083 16.4827C5.57417 19.323 6.64633 22.9508 7.5075 25.866C7.96023 27.0893 8.22605 28.3738 8.296 29.6763C7.49765 30.6313 6.56671 31.4671 5.5315 32.1583C3.06667 34.0382 0 36.3785 0 40C0 43.6215 3.06667 45.9618 5.53217 47.8418C6.55908 48.5312 7.48651 49.3584 8.2885 50.3C8.22898 51.611 7.96543 52.9048 7.50733 54.1347C6.64633 57.0497 5.574 60.6777 7.64067 63.5162C9.72233 66.3775 13.5252 66.4735 16.5803 66.5517C17.8655 66.5003 19.1513 66.6385 20.3962 66.9618C21.0806 68.0355 21.6033 69.2042 21.9473 70.4302C22.9678 73.3338 24.2373 76.9468 27.6382 78.0523C28.2407 78.2498 28.8708 78.3503 29.5048 78.3502C32.0643 78.3502 34.4015 76.7437 36.511 75.2952C37.5604 74.457 38.7387 73.7945 40 73.3333C41.2619 73.794 42.4408 74.4564 43.4905 75.2947C46.1018 77.0882 49.0633 79.1178 52.3633 78.0518C55.7633 76.9467 57.0328 73.3352 58.0533 70.4313C58.3967 69.2114 58.9136 68.0472 59.5882 66.9743C60.837 66.6411 62.1291 66.499 63.4205 66.5527C66.4755 66.4747 70.2783 66.3785 72.36 63.5173C74.4267 60.6772 73.3545 57.0492 72.4933 54.134C72.0406 52.9107 71.7748 51.6262 71.7048 50.3237C72.5032 49.3687 73.4341 48.5328 74.4693 47.8417C76.9333 45.9618 80 43.6215 80 40C80 36.3785 76.9333 34.0382 74.4678 32.1582ZM54.8568 34.0235L38.1902 50.6902C37.8807 50.9997 37.5133 51.2453 37.1089 51.4128C36.7045 51.5804 36.2711 51.6666 35.8333 51.6666C35.3956 51.6666 34.9622 51.5804 34.5578 51.4128C34.1534 51.2453 33.786 50.9997 33.4765 50.6902L25.1432 42.3568C24.8272 42.0488 24.5755 41.681 24.4028 41.2749C24.2301 40.8689 24.1397 40.4325 24.1369 39.9912C24.1341 39.55 24.2189 39.1125 24.3865 38.7043C24.5541 38.296 24.8011 37.9251 25.1131 37.6131C25.4251 37.3011 25.796 37.0541 26.2043 36.8865C26.6125 36.7189 27.05 36.6341 27.4913 36.6369C27.9325 36.6397 28.3689 36.73 28.775 36.9028C29.181 37.0755 29.5488 37.3272 29.8568 37.6432L35.8333 43.6198L50.1432 29.3098C50.4512 28.9939 50.819 28.7422 51.225 28.5695C51.6311 28.3967 52.0675 28.3063 52.5087 28.3035C52.95 28.3007 53.3875 28.3856 53.7957 28.5532C54.204 28.7207 54.5749 28.9677 54.8869 29.2798C55.1989 29.5918 55.4459 29.9627 55.6135 30.3709C55.7811 30.7792 55.8659 31.2166 55.8631 31.6579C55.8603 32.0992 55.7699 32.5355 55.5972 32.9416C55.4245 33.3477 55.1728 33.7154 54.8568 34.0235Z" fill="#9D1313"/>
</g>
<defs>
<clipPath id="clip0_1564_11216">
<rect width="80" height="80" fill="white"/>
</clipPath>
</defs>
</svg>
