<svg width="446" height="446" viewBox="0 0 446 446" fill="none" xmlns="http://www.w3.org/2000/svg">
<path d="M223 441C343.398 441 441 343.398 441 223C441 102.602 343.398 5 223 5C102.602 5 5 102.602 5 223C5 343.398 102.602 441 223 441Z" stroke="#9D1313" stroke-width="8.8773" stroke-miterlimit="10"/>
<g opacity="0.25">
<path d="M275.112 327.874C256.385 337.756 237.313 341.495 214.502 341.495C158.659 341.495 111.324 300.632 111.324 235.262C111.324 165.115 160.018 104.505 235.616 104.505C294.86 104.505 334.701 146.051 334.701 202.915C334.701 253.972 306.101 283.956 274.091 283.956C260.47 283.956 247.87 274.766 248.891 253.997H247.533C235.583 274.074 219.937 283.948 199.505 283.948C179.741 283.948 162.727 267.947 162.727 241.043C162.727 198.822 196.096 160.339 243.431 160.339C258.074 160.339 271.011 163.402 279.864 167.487L268.285 229.119C263.179 255.002 267.264 266.918 278.505 267.255C295.864 267.593 315.275 244.444 315.275 204.94C315.275 155.53 285.628 120.119 232.874 120.119C177.369 120.119 130.759 164.045 130.759 233.17C130.759 290.042 167.874 325.115 218.273 325.115C237.683 325.115 255.727 320.998 269.693 313.191L275.112 327.874ZM256.369 180.779C250.841 179.149 245.102 178.344 239.339 178.39C209.379 178.39 185.201 206.653 185.201 239.684C185.201 254.664 192.695 265.559 207.675 265.559C227.439 265.559 245.474 240.368 249.221 219.253L256.369 180.779Z" fill="#777777"/>
</g>
<path d="M290.536 50.5649C277.36 60.6859 271.381 75.2703 266.275 90.2747C259.251 110.937 255.57 132.34 253.008 153.932C250.48 174.737 249.336 195.686 249.583 216.643C249.78 231.252 258.18 240.302 272.732 241.496C277.104 241.85 279.904 244.436 279.929 248.801C280.053 274.56 280.753 300.311 276.182 325.89C273.217 342.525 271.34 359.357 269.141 376.124C267.98 385.034 272.995 392.116 281.321 393.895C285.042 394.63 288.903 393.943 292.143 391.97C295.383 389.998 297.765 386.882 298.82 383.239C299.279 381.51 299.493 379.724 299.454 377.935C299.454 271.565 299.479 165.198 299.529 58.833C299.529 54.8637 298.12 52.1625 294.588 50.5485L290.536 50.5649Z" fill="#9D1313"/>
<path d="M193.839 51.1154C194.506 52.573 195.634 53.9895 195.758 55.4965C197.57 76.5866 199.332 97.685 200.913 118.792C201.737 129.547 201.811 140.351 199.11 150.867C198.005 155.309 196.233 159.557 193.856 163.467C185.843 176.289 181.437 190.19 181.231 205.112C180.902 227.734 180.556 250.405 181.972 272.978C183.158 291.787 186.856 310.447 189.458 329.174C190.891 339.476 193.09 349.762 193.576 360.08C193.88 366.842 191.723 373.71 190.586 380.52C190.324 381.61 189.911 382.657 189.359 383.633C186.115 390.361 181.684 395.656 173.416 395.45C165.148 395.244 160.701 390.007 157.868 383.098C153.215 371.733 153.232 359.908 155.225 348.041C157.926 331.933 161.558 315.924 163.567 299.758C165.461 284.169 166.177 268.522 166.779 252.876C167.289 239.444 166.713 225.98 166.927 212.524C167.19 196.457 163.789 181.181 155.628 167.486C147.887 154.507 145.746 140.656 146.627 126.17C147.78 106.274 149.592 86.4111 151.14 66.5398C151.42 62.9657 151.659 59.3835 152.112 55.8341C152.437 54.2255 152.897 52.647 153.487 51.1154H156.847C157.358 52.8613 158.288 54.6071 158.296 56.3529C158.395 78.5054 158.362 100.658 158.379 122.802C158.379 124.021 158.189 125.446 158.733 126.409C159.276 127.373 160.701 128.633 161.615 128.542C162.752 128.427 164.086 127.249 164.728 126.178C165.247 125.355 164.926 124.013 164.926 122.884C164.926 100.65 164.926 78.3654 164.983 56.0977C164.983 54.4506 165.807 52.8036 166.268 51.1072H168.953C169.546 52.8201 170.6 54.5248 170.649 56.2377C170.806 67.7668 170.731 79.296 170.731 90.8251C170.731 102.008 170.731 113.197 170.731 124.391C170.731 126.598 171.168 128.624 173.828 128.674C176.669 128.723 177.254 126.689 177.163 124.301C177.163 123.411 177.163 122.514 177.163 121.616C177.163 99.8014 177.122 77.9701 177.245 56.1635C177.245 54.5165 178.423 52.7954 179.049 51.1154H181.067C181.709 52.7624 182.895 54.4589 182.903 56.1388C183.026 78.2913 182.969 100.444 183.002 122.604C183.002 125.157 182.178 128.674 186.296 128.616C190.1 128.567 189.425 125.207 189.425 122.736C189.425 100.691 189.425 78.6454 189.516 56.6082C189.516 54.7718 190.595 52.9436 191.163 51.1154H193.839Z" fill="#9D1313"/>
</svg>
